<?xml version="1.0" encoding="UTF-8" standalone="no"?>
<!-- Created with Inkscape (http://www.inkscape.org/) -->

<svg
   width="286.84216"
   height="286.84219"
   viewBox="0 0 286.84216 286.84219"
   version="1.1"
   id="svg1"
   inkscape:export-filename="MenuIcon.svg"
   inkscape:export-xdpi="96"
   inkscape:export-ydpi="96"
   inkscape:version="1.3.2 (091e20e, 2023-11-25, custom)"
   sodipodi:docname="All_elements.svg"
   xml:space="preserve"
   xmlns:inkscape="http://www.inkscape.org/namespaces/inkscape"
   xmlns:sodipodi="http://sodipodi.sourceforge.net/DTD/sodipodi-0.dtd"
   xmlns="http://www.w3.org/2000/svg"
   xmlns:svg="http://www.w3.org/2000/svg"><sodipodi:namedview
     id="namedview1"
     pagecolor="#505050"
     bordercolor="#ffffff"
     borderopacity="1"
     inkscape:showpageshadow="0"
     inkscape:pageopacity="0"
     inkscape:pagecheckerboard="1"
     inkscape:deskcolor="#505050"
     inkscape:document-units="px"
     inkscape:zoom="0.35355339"
     inkscape:cx="1538.6644"
     inkscape:cy="-1053.5891"
     inkscape:window-width="1920"
     inkscape:window-height="1171"
     inkscape:window-x="-9"
     inkscape:window-y="-9"
     inkscape:window-maximized="1"
     inkscape:current-layer="layer1" /><defs
     id="defs1" /><g
     inkscape:groupmode="layer"
     id="layer3"
     inkscape:label="Capa 3"
     transform="translate(-906.46375,357.88123)"><g
       id="g24"
       inkscape:export-filename=".\credits.svg"
       inkscape:export-xdpi="96"
       inkscape:export-ydpi="96"
       transform="matrix(0.22606709,0,0,0.22606709,887.89202,-162.45303)"><path
         sodipodi:type="star"
         style="fill:#e3fffd;fill-opacity:1;stroke:none;stroke-width:1.5;stroke-linecap:round;stroke-linejoin:round;stroke-miterlimit:0"
         id="path22"
         inkscape:flatsided="false"
         sodipodi:sides="16"
         sodipodi:cx="458.45273"
         sodipodi:cy="-431.23755"
         sodipodi:r1="218.70003"
         sodipodi:r2="196.61133"
         sodipodi:arg1="0.95895466"
         sodipodi:arg2="1.1553042"
         inkscape:rounded="0.2"
         inkscape:randomized="-2.0816682e-17"
         d="m 584.06878,-252.21154 c -7.57423,5.31455 -37.7903,-2.87759 -46.25581,0.85719 -8.4655,3.73478 -22.78497,31.57496 -31.81643,33.58644 -9.03146,2.01148 -33.81248,-17.12026 -43.06283,-16.90938 -9.25035,0.21088 -33.13378,20.45203 -42.24752,18.8542 -9.11375,-1.59782 -24.68702,-28.75653 -33.31393,-32.10166 -8.6269,-3.34513 -38.43827,6.21546 -46.24681,1.25158 -7.80854,-4.96387 -11.80318,-36.01489 -18.49328,-42.40675 -6.6901,-6.39187 -37.89089,-8.96736 -43.20545,-16.54158 -5.31455,-7.57422 2.87759,-37.7903 -0.85719,-46.25581 -3.73479,-8.4655 -31.57496,-22.78497 -33.58644,-31.81643 -2.01149,-9.03146 17.12026,-33.81248 16.90938,-43.06283 -0.21088,-9.25034 -20.45203,-33.13378 -18.8542,-42.24752 1.59782,-9.11375 28.75653,-24.68702 32.10166,-33.31392 3.34513,-8.62691 -6.21546,-38.43828 -1.25158,-46.24682 4.96387,-7.80854 36.01489,-11.80318 42.40675,-18.49328 6.39187,-6.69009 8.96736,-37.89089 16.54158,-43.20544 7.57422,-5.31456 37.7903,2.87758 46.25581,-0.8572 8.4655,-3.73478 22.78497,-31.57496 31.81643,-33.58644 9.03146,-2.01148 33.81248,17.12026 43.06283,16.90938 9.25034,-0.21088 33.13378,-20.45203 42.24752,-18.8542 9.11374,1.59782 24.68702,28.75654 33.31392,32.10166 8.62691,3.34513 38.43828,-6.21546 46.24682,-1.25158 7.80854,4.96388 11.80318,36.01489 18.49328,42.40676 6.69009,6.39186 37.89089,8.96735 43.20544,16.54157 5.31456,7.57423 -2.87758,37.7903 0.8572,46.25581 3.73478,8.4655 31.57496,22.78497 33.58644,31.81643 2.01148,9.03146 -17.12026,33.81248 -16.90938,43.06283 0.21088,9.25034 20.45202,33.13378 18.8542,42.24752 -1.59783,9.11375 -28.75654,24.68702 -32.10166,33.31393 -3.34513,8.6269 6.21546,38.43827 1.25158,46.24681 -4.96388,7.80854 -36.01489,11.80318 -42.40676,18.49328 -6.39186,6.6901 -8.96735,37.89089 -16.54157,43.20545 z"
         transform="matrix(2.8627154,-0.4699151,0.4699151,2.8627154,-393.20487,1219.8926)" /><g
         id="g25"
         transform="matrix(1.748584,0,0,1.748584,268.93229,-651.10225)"><path
           d="M 256,160 C 272,96.84 332.43,64.59 464,64 a 15.94,15.94 0 0 1 16,16 v 288 a 16,16 0 0 1 -16,16 C 336,384 286.55,409.81 256,448 225.63,410 176,384 48,384 38.12,384 32,375.95 32,366.07 V 80 A 15.94,15.94 0 0 1 48,64 c 131.57,0.59 192,32.84 208,96 z"
           style="fill:#2d6ea1;fill-opacity:1;stroke:#b5e8ea;stroke-width:22.6481;stroke-linecap:round;stroke-linejoin:round;stroke-dasharray:none;stroke-opacity:1"
           id="path1-3" /><line
           x1="256"
           y1="160"
           x2="256"
           y2="448"
           style="display:inline;fill:none;stroke:#b5e8ea;stroke-width:22.6481;stroke-linecap:round;stroke-linejoin:round;stroke-dasharray:none;stroke-opacity:1"
           id="line1" /></g></g></g></svg>
